#!OML:ASF X:\für Bonn\!DataBase\2005_08_11_Bastian_Final\c3d\Bastian.ASF
:FULLY-SPECIFIED
:DEGREES
121
root 0.133457 13.5083 7.04977 172.968 -9.2166 -177.122
lowerback 30.9901 -1.89331 4.10488
upperback 7.73789 -3.05716 1.37464
thorax -8.27839 -2.33846 0.425768
lowerneck -12.0944 -4.50451 -2.3528
upperneck -12.1456 -6.93184 10.3616
head -1.36985 -4.23485 3.6252
rclavicle 5.56597e-015 -1.43125e-014
rhumerus 70.0189 8.69056 -2.54062
rradius 38.741
rwrist -46.9527
rhand -45.8814 -3.82652
rfingers 7.12502
rthumb -18.6316 -32.9543
lclavicle 5.56597e-015 -1.43125e-014
lhumerus 67.6677 -13.4272 -10.5169
lradius 32.3523
lwrist 8.98702
lhand -47.126 17.638
lfingers 7.12502
lthumb -19.8284 46.6466
rfemur -43.0931 -13.7987 26.3047
rtibia 100.032
rfoot -29.487 -3.60543
rtoes -2.963
lfemur -43.5408 3.05712 -16.2795
ltibia 97.7031
lfoot -28.2552 -10.6181
ltoes -11.5964
122
root 0.133245 13.7285 7.04454 173.257 -9.35069 -177.268
lowerback 30.4757 -1.91696 4.00013
upperback 7.69127 -3.10017 1.32977
thorax -8.09042 -2.33733 0.424007
lowerneck -12.1118 -4.50069 -2.30583
upperneck -12.0426 -6.92468 10.3343
head -1.33563 -4.2231 3.60283
rclavicle 2.80286e-014 -1.28216e-014
rhumerus 70.002 8.99899 -2.58775
rradius 38.7416
rwrist -46.8488
rhand -45.9945 -3.73729
rfingers 7.12502
rthumb -18.7404 -32.8546
lclavicle 2.80286e-014 -1.28216e-014
lhumerus 67.8311 -13.487 -10.1145
lradius 32.2511
lwrist 8.50478
lhand -46.9198 17.5082
lfingers 7.12502
lthumb -19.6302 46.5371
rfemur -41.9711 -13.4685 26.1191
rtibia 97.5867
rfoot -29.12 -3.75692
rtoes -2.65413
lfemur -42.3452 2.8048 -16.4662
ltibia 95.1037
lfoot -27.7639 -10.5911
ltoes -10.8324
123
root 0.131828 13.942 7.03872 173.546 -9.51057 -177.411
lowerback 29.9353 -1.94424 3.87777
upperback 7.64548 -3.15115 1.31517
thorax -7.88531 -2.34026 0.467402
lowerneck -12.1507 -4.49733 -2.27464
upperneck -11.9321 -6.91766 10.2726
head -1.29618 -4.20926 3.57046
rclavicle 9.0447e-015 -2.98177e-016
rhumerus 70.0197 9.31555 -2.49509
rradius 38.7526
rwrist -46.8211
rhand -46.122 -3.68
rfingers 7.12502
rthumb -18.863 -32.7854
lclavicle 9.0447e-015 -2.98177e-016
lhumerus 67.9916 -13.546 -9.9406
lradius 32.2118
lwrist 8.22804
lhand -46.6785 17.5482
lfingers 7.12502
lthumb -19.3981 46.6007
rfemur -40.8465 -13.1788 25.9264
rtibia 95.1536
rfoot -28.7684 -3.86905
rtoes -2.13311
lfemur -41.1632 2.57618 -16.6467
ltibia 92.511
lfoot -27.261 -10.6197
ltoes -10.0054
124
root 0.129473 14.1481 7.03119 173.823 -9.64046 -177.531
lowerback 29.3863 -1.97461 3.8016
upperback 7.59783 -3.19322 1.27324
thorax -7.67951 -2.33927 0.449688
lowerneck -12.2284 -4.50066 -2.20602
upperneck -11.7634 -6.92337 10.2187
head -1.23116 -4.19919 3.53002
rclavicle -2.88735e-014 2.68359e-015
rhumerus 70.0012 9.65574 -2.56489
rradius 38.7398
rwrist -46.7144
rhand -46.2 -3.6893
rfingers 7.12502
rthumb -18.938 -32.7874
lclavicle -2.88735e-014 2.68359e-015
lhumerus 68.2128 -13.6592 -10.1067
lradius 32.2547
lwrist 8.22259
lhand -46.4734 17.7528
lfingers 7.12502
lthumb -19.2009 46.825
rfemur -39.7385 -12.8993 25.7708
rtibia 92.7432
rfoot -28.415 -4.06419
rtoes -1.89849
lfemur -39.9745 2.4219 -16.7923
ltibia 89.9342
lfoot -26.7757 -10.6736
ltoes -9.27748
125
root 0.127623 14.348 7.02176 174.103 -9.78197 -177.673
lowerback 28.816 -2.00132 3.67143
upperback 7.54862 -3.24456 1.24246
thorax -7.46122 -2.3421 0.477055
lowerneck -12.3092 -4.49451 -2.1834
upperneck -11.6094 -6.9125 10.2008
head -1.16872 -4.18126 3.51193
rclavicle -3.69739e-014 2.26615e-014
rhumerus 70.0054 10.0093 -2.59894
rradius 38.7243
rwrist -46.6634
rhand -46.2409 -3.66466
rfingers 7.12502
rthumb -18.9774 -32.7589
lclavicle -3.69739e-014 2.26615e-014
lhumerus 68.4246 -13.8137 -10.2775
lradius 32.2695
lwrist 8.1939
lhand -46.2791 18.0077
lfingers 7.12502
lthumb -19.0141 47.0983
rfemur -38.6231 -12.6324 25.5902
rtibia 90.3425
rfoot -28.0857 -4.20094
rtoes -1.53909
lfemur -38.7948 2.27441 -16.9595
ltibia 87.3568
lfoot -26.2843 -10.6881
ltoes -8.84338
126
root 0.124826 14.5459 7.01083 174.386 -9.93176 -177.817
lowerback 28.2309 -2.03265 3.55417
upperback 7.49498 -3.2964 1.20309
thorax -7.23996 -2.34489 0.486483
lowerneck -12.4351 -4.49269 -2.09092
upperneck -11.3914 -6.91579 10.1156
head -1.08195 -4.16672 3.45358
rclavicle 3.762e-014 -2.36554e-014
rhumerus 69.9916 10.3822 -2.67266
rradius 38.7199
rwrist -46.6353
rhand -46.3198 -3.65787
rfingers 7.12502
rthumb -19.0533 -32.7446
lclavicle 3.762e-014 -2.36554e-014
lhumerus 68.6633 -13.9995 -10.4886
lradius 32.3003
lwrist 8.20616
lhand -46.0908 18.3638
lfingers 7.12502
lthumb -18.833 47.4721
rfemur -37.5157 -12.4059 25.4137
rtibia 87.94
rfoot -27.7054 -4.3927
rtoes -1.20851
lfemur -37.5968 2.11045 -17.1313
ltibia 84.7493
lfoot -25.7848 -10.6949
ltoes -8.31582
127
root 0.12239 14.7409 6.9983 174.636 -10.0637 -177.958
lowerback 27.6516 -2.05656 3.42333
upperback 7.45645 -3.34651 1.16124
thorax -7.00213 -2.34899 0.499609
lowerneck -12.529 -4.4822 -2.03731
upperneck -11.2313 -6.90482 10.0836
head -1.01723 -4.14964 3.4248
rclavicle 5.61567e-015 -3.04141e-014
rhumerus 69.9817 10.7445 -2.7902
rradius 38.6893
rwrist -46.6432
rhand -46.3288 -3.57181
rfingers 7.12502
rthumb -19.0619 -32.6577
lclavicle 5.61567e-015 -3.04141e-014
lhumerus 68.9181 -14.207 -10.7338
lradius 32.3068
lwrist 8.25531
lhand -45.9407 18.697
lfingers 7.12502
lthumb -18.6887 47.8193
rfemur -36.3386 -12.1579 25.236
rtibia 85.5199
rfoot -27.357 -4.54955
rtoes -0.803775
lfemur -36.3268 1.92892 -17.2909
ltibia 82.1043
lfoot -25.2902 -10.67
ltoes -8.04576
